Portuguese filmmaker Teresa Villaverde  turns her attentions to the topic of human trafficking in modern-day Europe with this tale of an optimistic Russian émigré who is forced into prostitution after leaving St. Petersburg to seek out a better life in Germany. Sonia (Ana Moreira) is a dreamer in her early twenties who is looking to escape the bleak poverty of St. Petersburg in hopes of improving her unfortunate lot in life. Upon finding illegal work at a German car factory, it appears as if Sonia's luck may be taking a turn for the better. When the factory is supposedly raided by police looking for illegal workers and a fellow Russian implores the Sonia to hide in the trunk of a car, the panicked girl's once bright future begins to grow considerably dimmer. Subsequently smuggled across Europe, Sonia is used as a sex slave in Germany before being transported to Italy to serve as a human plaything for the simple minded son of a powerful millionaire. Now trapped in an opulent mansion prison with no one to turn to and no place to run, Sonia soon becomes obsessed with the prospect of escaping her outwardly lavish hell on Earth. 


   General
      Complete name : Transe.avi
      Format : AVI
      Format/Info : Audio Video Interleave
      File size : 1.46 GiB
      Duration : 2h 1mn
      Overall bit rate : 1 730 Kbps
      Writing application : FairUse Wizard - http://fairusewizard.com
      Writing library : The best and REALLY easy backup tool
   Video #0
      ID : 0
      Format : MPEG-4 Visual
      Format profile : AdvancedSimple@L5
      Format settings, BVOP : Yes
      Format settings, QPel : No
      Format settings, GMC : No warppoints
      Format settings, Matrix : Default (MPEG)
      Muxing mode : Packed bitstream
      Codec ID : XVID
      Codec ID/Hint : XviD
      Duration : 2h 1mn
      Bit rate : 1 528 Kbps
      Width : 704 pixels
      Height : 416 pixels
      Display aspect ratio : 1.692
      Frame rate : 25.000 fps
      Resolution : 24 bits
      Colorimetry : 4:2:0
      Scan type : Progressive
      Bits/(Pixel*Frame) : 0.209
      Stream size : 1.29 GiB (88%)
      Writing library : XviD 1.2.0.dev47 (UTC 2006-11-01)
   Audio #1
      ID : 1
      Format : AC-3
      Format/Info : Audio Coding 3
      Codec ID : 2000
      Duration : 2h 1mn
      Bit rate mode : Constant
      Bit rate : 192 Kbps
      Channel(s) : 2 channels
      Channel positions : L R
      Sampling rate : 48.0 KHz
      Stream size : 166 MiB (11%)
      Alignment : Split accross interleaves
      Interleave, duration : 40 ms (1.00 video frame)
      Interleave, preload duration : 500 ms
 
http://www.imdb.com/title/tt0460034/

Portuguese, Italian, German and Russian audio; English and Portuguese subtitles

Teresa Villaverde - Transe (2006)